<?xml version="1.0" standalone="no"?>
<!DOCTYPE svg PUBLIC "-//W3C//DTD SVG 20010904//EN"
 "http://www.w3.org/TR/2001/REC-SVG-20010904/DTD/svg10.dtd">
<svg version="1.0" xmlns="http://www.w3.org/2000/svg"
 width="540.000000pt" height="540.000000pt" viewBox="0 0 540.000000 540.000000"
 preserveAspectRatio="xMidYMid meet">
<metadata>
Created by potrace 1.14, written by Peter Selinger 2001-2017
</metadata>
<g transform="translate(0.000000,540.000000) scale(0.100000,-0.100000)"
fill="#000000" stroke="none">
<path d="M1215 5152 c-165 -24 -297 -133 -351 -292 -18 -53 -19 -110 -18
-1510 0 -800 2 -1491 4 -1534 8 -194 69 -431 160 -622 251 -528 777 -894 1355
-941 44 -4 536 -7 1094 -7 l1014 -1 35 63 34 62 -113 177 c-62 98 -131 207
-154 243 -24 36 -188 295 -365 575 -178 281 -329 520 -337 532 -14 21 -12 23
39 49 204 102 409 265 554 440 186 225 323 528 364 804 6 41 13 86 16 100 6
31 6 318 0 345 -2 11 -7 45 -11 75 -16 130 -76 325 -142 470 -187 406 -568
746 -988 883 -97 32 -223 63 -290 72 -27 3 -66 9 -85 12 -35 6 -1779 11 -1815
5z m1800 -166 c462 -52 869 -298 1120 -676 62 -94 120 -202 144 -270 7 -19 17
-44 22 -55 28 -68 68 -239 84 -360 10 -76 7 -286 -4 -352 -5 -32 -12 -75 -15
-95 -3 -21 -15 -72 -26 -113 -61 -227 -170 -428 -344 -633 -42 -49 -204 -188
-277 -237 -86 -57 -237 -137 -248 -131 -5 4 -904 1415 -961 1511 -15 25 -312
492 -697 1099 -112 175 -203 319 -203 320 0 5 1359 -3 1405 -8z m-1630 -20
c63 -30 85 -54 177 -196 77 -120 402 -632 428 -675 26 -43 184 -292 340 -535
82 -129 159 -251 170 -270 11 -19 123 -196 248 -392 498 -783 564 -890 556
-897 -10 -9 -121 -38 -174 -46 -19 -3 -48 -8 -65 -12 -54 -12 -1801 -15 -1858
-3 -72 15 -138 66 -171 131 l-26 53 0 1330 0 1331 25 50 c29 60 39 73 85 107
48 35 85 46 155 47 43 1 74 -6 110 -23z m2159 -3323 c138 -219 461 -729 515
-813 177 -275 261 -414 253 -419 -6 -3 -439 -5 -964 -5 -888 1 -1014 4 -1123
28 -196 43 -345 101 -500 196 -211 129 -393 317 -519 535 -79 137 -156 349
-172 470 -3 22 -7 46 -9 53 -3 7 -7 47 -11 89 l-7 76 49 -27 c110 -59 66 -56
1074 -53 509 2 934 6 945 9 11 3 43 9 70 13 51 7 237 53 244 61 12 11 29 -12
155 -213z"/>
</g>
</svg>
