<?xml version="1.0" standalone="no"?>
<!DOCTYPE svg PUBLIC "-//W3C//DTD SVG 20010904//EN"
 "http://www.w3.org/TR/2001/REC-SVG-20010904/DTD/svg10.dtd">
<svg version="1.0" xmlns="http://www.w3.org/2000/svg"
 width="271.000000pt" height="271.000000pt" viewBox="0 0 271.000000 271.000000"
 preserveAspectRatio="xMidYMid meet">
<metadata>
Created by potrace 1.14, written by Peter Selinger 2001-2017
</metadata>
<g transform="translate(0.000000,271.000000) scale(0.100000,-0.100000)"
fill="#000000" stroke="none">
<path d="M384 2608 c-3 -4 -3 -570 -2 -1258 l2 -1251 206 2 c222 1 273 10 363
62 51 30 121 97 153 149 37 57 64 153 67 229 1 38 4 69 7 69 3 -1 15 -22 27
-48 77 -163 280 -336 478 -409 114 -42 164 -48 415 -48 l225 0 1 299 c1 164
-3 320 -9 345 -33 160 -159 295 -322 344 -59 17 -59 17 -87 17 -16 0 -6 10 35
34 227 137 371 381 381 647 16 408 -286 766 -686 814 -77 10 -1249 12 -1254 3z
m1233 -82 c358 -36 639 -360 627 -721 -6 -190 -71 -342 -204 -476 -94 -96
-176 -146 -298 -187 -72 -24 -93 -26 -322 -30 l-245 -4 -1 564 c0 514 -2 568
-18 616 -26 78 -63 138 -117 192 -27 27 -44 50 -39 52 17 6 553 0 617 -6z
m-732 -33 c67 -34 124 -88 159 -148 49 -87 50 -103 51 -685 l0 -545 -175 1
c-173 0 -176 1 -240 31 -82 37 -159 119 -191 201 -22 56 -22 64 -24 612 -1
305 0 559 3 563 2 5 84 7 181 5 174 -4 177 -4 236 -35z m-267 -1407 c87 -44
138 -53 307 -55 88 -1 161 -4 164 -6 8 -8 6 -473 -2 -530 -18 -119 -91 -219
-204 -276 l-67 -34 -175 -3 -176 -4 0 520 -1 519 54 -53 c29 -30 74 -65 100
-78z m1397 -85 c81 -33 174 -126 206 -207 21 -56 22 -74 24 -338 l2 -278 -201
5 c-234 5 -294 18 -440 95 -252 132 -426 414 -426 687 l0 66 388 -3 c381 -3
388 -4 447 -27z"/>
</g>
</svg>
