<?xml version="1.0" standalone="no"?>
<!DOCTYPE svg PUBLIC "-//W3C//DTD SVG 20010904//EN"
 "http://www.w3.org/TR/2001/REC-SVG-20010904/DTD/svg10.dtd">
<svg version="1.0" xmlns="http://www.w3.org/2000/svg"
 width="271.000000pt" height="271.000000pt" viewBox="0 0 271.000000 271.000000"
 preserveAspectRatio="xMidYMid meet">
<metadata>
Created by potrace 1.14, written by Peter Selinger 2001-2017
</metadata>
<g transform="translate(0.000000,271.000000) scale(0.100000,-0.100000)"
fill="#000000" stroke="none">
<path d="M384 2608 c-3 -4 -4 -571 -2 -1259 l2 -1252 106 6 c213 13 429 80
595 185 l30 19 36 -28 c66 -52 214 -125 294 -146 108 -27 179 -32 523 -32
l363 -1 -3 312 -3 313 -31 65 c-75 157 -218 244 -394 241 l-45 0 55 31 c210
118 369 343 407 577 16 92 8 261 -15 351 -79 307 -325 539 -641 606 -64 13
-169 16 -674 17 -330 1 -601 -1 -603 -5z m1196 -82 c268 -27 507 -205 610
-455 134 -326 25 -699 -262 -901 -72 -50 -187 -103 -249 -115 l-36 -7 15 69
c17 74 22 331 10 421 -58 410 -334 777 -720 960 -38 17 -68 33 -68 34 0 6 638
0 700 -6z m-890 -27 c395 -90 720 -387 849 -774 44 -134 59 -239 56 -395 -3
-117 -6 -150 -19 -205 -2 -5 -6 -27 -11 -47 -4 -21 -12 -39 -19 -39 -6 -1
-251 -3 -543 -4 -489 -3 -533 -2 -534 14 -1 21 -1 1452 0 1470 1 17 99 8 221
-20z m1257 -1553 c122 -8 220 -75 271 -184 27 -57 27 -59 30 -320 l3 -264
-353 5 c-402 5 -407 5 -574 88 -151 74 -150 71 -54 157 131 120 285 345 329
484 9 26 19 38 34 40 28 4 221 1 314 -6z m-1144 -62 c8 -88 50 -224 94 -304
29 -55 103 -163 122 -180 36 -31 33 -38 -35 -76 -86 -48 -220 -98 -314 -117
-92 -19 -200 -29 -201 -19 -1 4 -2 177 -3 385 l-1 377 166 0 166 0 6 -66z
m710 29 c-74 -180 -208 -358 -354 -474 l-37 -29 -39 43 c-55 59 -110 148 -144
230 -29 69 -59 194 -59 242 l0 25 324 0 325 0 -16 -37z"/>
</g>
</svg>
