<?xml version="1.0" standalone="no"?>
<!DOCTYPE svg PUBLIC "-//W3C//DTD SVG 20010904//EN"
 "http://www.w3.org/TR/2001/REC-SVG-20010904/DTD/svg10.dtd">
<svg version="1.0" xmlns="http://www.w3.org/2000/svg"
 width="270.000000pt" height="270.000000pt" viewBox="0 0 270.000000 270.000000"
 preserveAspectRatio="xMidYMid meet">
<metadata>
Created by potrace 1.14, written by Peter Selinger 2001-2017
</metadata>
<g transform="translate(0.000000,270.000000) scale(0.100000,-0.100000)"
fill="#000000" stroke="none">
<path d="M1218 2540 c-193 -35 -346 -119 -498 -274 l-64 -66 399 0 c313 0 415
-4 470 -15 174 -36 327 -157 403 -316 47 -98 62 -162 62 -262 0 -163 -55 -293
-175 -412 -125 -125 -219 -164 -422 -174 l-132 -6 337 -312 337 -312 198 197
c221 219 282 292 333 399 61 129 78 210 78 363 0 182 -38 316 -131 458 -44 69
-472 504 -563 574 -77 59 -180 110 -282 138 -82 24 -272 35 -350 20z"/>
<path d="M364 1908 c-79 -83 -153 -222 -190 -358 -28 -100 -26 -310 4 -413 30
-106 81 -209 140 -287 80 -105 517 -531 589 -574 143 -86 274 -121 448 -120
88 1 141 6 200 22 96 25 158 50 153 62 -2 5 -199 190 -438 411 -239 221 -443
414 -453 430 -23 35 -24 101 -3 134 38 59 44 60 371 65 348 6 364 9 453 104
68 71 95 147 90 243 -8 129 -75 225 -197 282 l-56 26 -540 3 -540 3 -31 -33z"/>
</g>
</svg>
