<?xml version="1.0" standalone="no"?>
<!DOCTYPE svg PUBLIC "-//W3C//DTD SVG 20010904//EN"
 "http://www.w3.org/TR/2001/REC-SVG-20010904/DTD/svg10.dtd">
<svg version="1.0" xmlns="http://www.w3.org/2000/svg"
 width="261.000000pt" height="261.000000pt" viewBox="0 0 261.000000 261.000000"
 preserveAspectRatio="xMidYMid meet">
<metadata>
Created by potrace 1.11, written by Peter Selinger 2001-2013
</metadata>
<g transform="translate(0.000000,261.000000) scale(0.100000,-0.100000)"
fill="#000000" stroke="none">
<path d="M1209 2280 c-140 -22 -242 -77 -361 -197 l-83 -83 148 -148 147 -147
-178 0 c-164 -1 -184 -3 -267 -28 -186 -57 -283 -116 -433 -261 l-103 -100
418 -419 c241 -241 447 -440 487 -468 125 -89 299 -126 446 -95 117 24 222 82
323 176 48 45 87 87 87 93 0 7 -66 79 -147 160 l-148 148 50 -7 c73 -12 241
-9 310 5 210 42 368 128 541 294 l85 82 -453 451 c-433 432 -456 453 -528 487
-115 53 -234 73 -341 57z m223 -178 c31 -11 76 -34 100 -50 24 -17 207 -195
408 -397 l365 -366 -47 -42 c-126 -113 -301 -182 -483 -193 -70 -4 -153 4
-375 34 -157 21 -287 37 -290 35 -2 -2 112 -120 254 -262 l258 -258 -32 -27
c-98 -82 -251 -116 -375 -82 -106 28 -129 47 -522 439 -211 210 -383 385 -383
389 0 10 110 96 158 123 61 35 163 74 232 90 103 23 241 18 530 -20 146 -19
267 -35 270 -35 3 0 -112 117 -255 261 l-260 260 35 30 c108 92 272 120 412
71z"/>
</g>
</svg>
